<?xml version="1.0" encoding="utf-8"?>
<!-- Generator: Adobe Illustrator 18.0.0, SVG Export Plug-In . SVG Version: 6.00 Build 0)  -->
<!DOCTYPE svg PUBLIC "-//W3C//DTD SVG 1.1//EN" "http://www.w3.org/Graphics/SVG/1.1/DTD/svg11.dtd">
<svg version="1.1" id="Layer_1" xmlns="http://www.w3.org/2000/svg" xmlns:xlink="http://www.w3.org/1999/xlink" x="0px" y="0px"
	 width="1920px" height="998.9px" viewBox="0 0 1920 998.9" enable-background="new 0 0 1920 998.9" xml:space="preserve">
<g>
	<g>
		<path fill="#EFF6FC" d="M452.3,997.9h1024.1c143-82.8,87.9-247.1,2-346c-67-77.2,0.7-161.8-81.6-331.8
			c-41.1-84.9-209.4-278.8-606.1-171.7C617,195.2,659.6,345.1,527.5,425.8c-207,126.4,2.3,182-114.2,353
			C328.9,902.6,449.2,996.1,452.3,997.9z"/>
		<g>
			<g>
				<path fill="#EB9949" d="M800.1,321c-32.5,14.8-44.5,37.7-32.4,80.5c8.5,24,64,84.1,127.8,80.2c-56.2-41.1-67.4-123.4-30-127.5
					C853.3,311.7,800.1,321,800.1,321z"/>
				<path fill="#F7CC7F" d="M961.6,478.5c-5.7-111.2-27.9-164.2-86.8-204.8c-22.4-15.6-52.7-11.2-90.3,23
					c-45,40.9-35.6,55.5-16.8,104.7c-6.3-30,1.2-60.8,28.9-63.2c27.7-2.4,64.5,7.3,109.1,65C935.3,441.5,940.5,489.4,961.6,478.5z"
					/>
				<path fill="#EB9642" d="M1115,298.7c5.9,53.4-43.1,88.1-88.8,131.5c-23.9,22.7-35.9,45.3-35.9,45.3c-10.1-8-5.1-15.4-2.6-26.6
					c48.4-72.8,55-125.1,37.8-137.6C1032.7,281.6,1100.8,240.4,1115,298.7z"/>
				<path fill="#F7CC7F" d="M959.8,475.5C939,352.9,942,293.5,961.9,253.8c21.5-42.8,43.8-53.1,84.5-32.8
					c64.8,32.2,69.3,53.6,68.6,77.7c-11.9-27.5-38.3-25.4-54.7-12.9c-16.5,12.5-51.4,53.9-62,114.2c-3.3,20.7-9.9,59.4-7.9,75.5
					C981.8,477.7,960.8,481.1,959.8,475.5z"/>
				<path fill="#EB9642" d="M1147.9,387.6c11.2,27.6,5.9,81.1-87.4,91.5c45.2,25.8,168.7,7.4,173.8-31.6
					c7.3-49.7-18.5-61.6-45.5-68.1C1161.7,372.9,1147.9,387.6,1147.9,387.6z"/>
				<path fill="#F7CC7F" d="M990.9,475.2c46.2-80.1,126-166.2,180.7-165.6c29.2,0,77.5,108.9,62.7,137.9c-2-40.7-25.7-53.5-60-52.3
					s-107,66.9-142.9,80C1000.8,482.7,990.9,475.2,990.9,475.2z"/>
			</g>
			<rect x="673.1" y="583" fill="#FF6C0D" width="561" height="413.4"/>
			<rect x="620.7" y="473.4" fill="#FF6C0D" width="665.7" height="109.6"/>
			<polygon fill="#C7C7C7" points="673.1,600.5 1234.1,587.8 1234.1,583 673.1,583 			"/>
			<path fill="#F7CC7F" d="M952.4,473.4c-19.4-7.6-64.4-2.3-97,0.5c-27.2,13.6-65.8,54.3-85.3,101.4c38.6-51.3,86.8-41.6,87.2,29.1
				C875.3,532.2,948.2,478.9,952.4,473.4z"/>
			<path fill="#F7CC7F" d="M984.3,473.4c63.6,40.4,97.7,100.9,113.6,159.2c19.7,76-12.6,121.9-18.8,143.8
				c102.9-136.3,109.1,0,109.1,0c35.1-83.7,25.5-169.2-25.8-228.2c-51.3-59-87.4-71.9-106.9-78.5
				C1035.9,463.1,997.2,465.6,984.3,473.4z"/>
		</g>
		<path fill="#939598" d="M1550.3,991.7H394.9c-1.4,0-2.6,1.6-2.6,3.6l0,0c0,2,1.2,3.6,2.6,3.6h1155.4c1.4,0,2.6-1.6,2.6-3.6l0,0
			C1552.9,993.3,1551.7,991.7,1550.3,991.7z"/>
	</g>
</g>
<polygon fill="#F7CC7F" points="1025.4,991.7 894.9,991.7 894.9,595.5 1025.4,592.5 "/>
<rect x="894.9" y="473.4" fill="#F7CC7F" width="130.5" height="109.6"/>
</svg>
