<?xml version="1.0" encoding="utf-8"?>
<!-- Generator: Adobe Illustrator 18.0.0, SVG Export Plug-In . SVG Version: 6.00 Build 0)  -->
<!DOCTYPE svg PUBLIC "-//W3C//DTD SVG 1.1//EN" "http://www.w3.org/Graphics/SVG/1.1/DTD/svg11.dtd">
<svg version="1.1" id="Layer_1" xmlns="http://www.w3.org/2000/svg" xmlns:xlink="http://www.w3.org/1999/xlink" x="0px" y="0px"
	 width="1920px" height="998.9px" viewBox="0 0 1920 998.9" enable-background="new 0 0 1920 998.9" xml:space="preserve">
<g>
	<g>
		<path fill="#EFF6FC" d="M452.3,997.9h1024.1c143-82.8,87.9-247.1,2-346c-67-77.2,0.7-161.8-81.6-331.8
			c-41.1-84.9-209.4-278.8-606.1-171.7C617,195.2,659.6,345.1,527.5,425.8c-207,126.4,2.3,182-114.2,353
			C328.9,902.6,449.2,996.1,452.3,997.9z"/>
		<path fill="#50BFA5" d="M1203.1,669.9l4.9-25.8c4-19.1,22.9-31.3,42.2-27.2l0,0c48.6,10.2,79.9,57.5,69.8,105.6l-7.4,35.1
			c-3.2,15.4,2.7,30.6,14.2,40c10.4,8.6,15,22.2,12.3,35.3l-3.9,18.5c-4.2,20.1-17.7,36.8-36.2,46c-10.8,5.4-19.1,15.4-21.8,28.1
			l-5.5,26.2c-6.1,29-34.8,47.5-64.2,41.4l-16.7-3.5c-29.4-6.2-48.2-34.7-42.1-63.7l0,0c12.5-35.6,5.3-59.2-5.6-74.2
			c-16.1-21.9-22.4-49.4-16.9-75.8l0.8-3.7c5.9-27.9,24.4-51.3,49.9-64.5C1188.2,701.9,1198.7,690.8,1203.1,669.9z"/>
		<g>
			<g>
				<path fill="#256653" d="M1386.8,425.8c0,0-17.7,38.6-29.7,54.9s-23.3,31.9-32.8,77.2c-9.5,45.3-7.9,49.8-10.5,61.5
					c-2.6,11.7-19.6,59.1-19.7,67.7c-0.1,8.7-34.3,58.1-43,81.3s-24.3,56.2-23.4,73l3.9-1c0,0,3.2-39.2,30.2-78.9
					c27-39.7,23.2-47.1,53.8-67.5c30.7-20.4,50.5-76.7,50.5-76.7s31.2-61.1,29.8-92.9C1394.5,492.7,1402.7,464,1386.8,425.8z"/>
				<path fill="#256653" d="M1349,366.4c0,0-1,25.4-9.2,40.4c-8.2,15.1-15.2,24.2-16.7,40.5c-1.5,16.3-6.6,58.3-29.4,78.8
					c-22.8,20.5-20.4,85.6-37.8,104.2c-17.4,18.6-20.3,35.2-17.1,67.1c3.2,31.9,9.5,69.3-15.7,127l-5.7-14.3c0,0,18-47.5,13.7-75.3
					c-4.4-27.8-19.5-69.8-14-89.9c5.6-20.1-15.1-24.1-2.7-54.5c12.4-30.5,7.3-41,24.3-67.4c0,0,1.7-1.2,6.2-23.5
					c4.5-22.3,40.3-63.1,56.9-77.1C1318.2,408.5,1342,386.1,1349,366.4z"/>
				<path fill="#3C8F7C" d="M1277.9,492c0,0-19.8,33.9-20.1,55.7c-0.3,21.8,2.1,39.6-7.9,69.5c-10,29.9,9.9,48.8,4.1,65.3
					c-5.7,16.5-6.2,36-6,50.9c0.2,14.8-22.7,63.9-26.2,88.7c-3.5,24.8,1,24.9,1,24.9s3.8-32.8,9.1-43.6s21.3-48.2,25-62.7
					c3.7-14.5,13.9-23.7,22.6-48.2c8.7-24.5,21.2-45.1,20.2-79.9C1298.7,577.8,1312.7,541.2,1277.9,492z"/>
				<path fill="#3C8F7C" d="M1235.9,824.2c0,0,9.2-43,48.2-47.3c39-4.3,61.8,3.4,89.4-28c27.5-31.4,43.5-81.4,52.3-89.9
					c0,0-13.8-7.1-36.8,14.4c-23,21.5-39.1,37.8-52.4,50.3s-24.1,4.4-38.2,12.6c-11.8,6.9-27,26.9-33.7,37.4
					c-2.2,3.4-4.8,6.5-7.7,9.3c-2.7,2.5-5.9,5.5-8,7.8c-4.1,4.5-16,33.8-16,33.8L1235.9,824.2z"/>
				<path fill="#3C8F7C" d="M1222.2,816.7c0,0,13.7-52.6,4.5-78.4c-9.2-25.8-38-44.8-36.8-61c1.2-16.2,19.6-59.9,4.6-92.5
					c0,0-5.7,29-11.4,35.5c-5.6,6.5-44.4,32.5-37.5,66.9c6.9,34.4,44.6,42.5,53.8,52.6c9.3,10.1,21.8,10.1,21.9,16.9
					c0.1,6.7,2.5,31.2-1.6,55.4L1222.2,816.7z"/>
				<path fill="#327F6B" d="M1237.2,781.4l19.3-55.6c0,0,11.3-44.7,17.9-82c6.6-37.3,3.5-151.9,3.5-151.9s-19.8,33.9-20.1,55.7
					c-0.3,21.8,2.1,39.6-7.9,69.5c-10,29.9,9.9,48.8,4.1,65.3c-5.7,16.5-6.2,36-6,50.9c0.2,14.8-22.7,63.9-26.2,88.7
					c-1.9,13.6-1.4,19.8-0.6,22.6C1218.1,822.9,1237.2,781.4,1237.2,781.4z"/>
				<path fill="#327F6B" d="M1332.2,748.3c-17.2,3.4-32.6,2.3-53,17.5c-20.4,15.2-32.4,31.4-32.4,31.4s-9.2,16.4-13,25.1
					c-0.5,1.3-0.9,2.1-0.9,2.1l3-0.2c0,0,9.2-43,48.2-47.3c39-4.3,61.8,3.4,89.4-28c27.5-31.4,43.5-81.4,52.3-89.9
					c0,0-29.3,22.8-47.4,42.9C1360.3,722,1349.4,744.9,1332.2,748.3z"/>
				<path fill="#327F6B" d="M1183.1,620.3c-5.6,6.5-44.4,32.5-37.5,66.9c6.9,34.4,44.6,42.5,53.8,52.6c9.3,10.1,21.8,10.1,21.9,16.9
					c0.1,6.7,2.5,31.2-1.6,55.4l1.1,2c2-9.4,4.9-23.8,5.8-34.7c1.5-17.7-1.4-25-7.1-39.4c-5.7-14.3-41.1-43.6-49.9-58.9
					c-8.9-15.4,17.1-41.1,22.9-53.4s2.1-42.8,2.1-42.8S1188.8,613.8,1183.1,620.3z"/>
			</g>
			<g>
				<path fill="#96D9C9" d="M1166,997.9c12.4-16.1,80.3-102.1,124.6-116.5c48.9-15.8,2.8,47.1,2.8,47.1s86.8-94.9,118.6-86.3
					c29.2,7.8,0,66.6,0,66.6s32.9-32.6,72.7-32.6c38.8,0-27.1,115.5-30.7,121.7H1166z"/>
			</g>
		</g>
		<path fill="#3C8F7C" d="M683.7,991.9c0,0,33-225.6,13.9-248.6c-26.5-31.7-48.3,73.5-50.4,64.5c-20.2-84.4-25.6-192.3-90.8-203.7
			c-37.1-6.5,8.6,80.3,5.8,103.7c-2.7,23.5-69.6-54.4-110.2-95.3c-40.6-40.8-61.6-15-35.9,36.3c24.8,49.6,105.1,103.9,88.5,110.3
			c-16.5,6.4-117-57.7-129.3-30.3c-15.1,33.6,135.6,79.3,121.4,86.9c-14.2,7.5-86.2-17.3-84.2,8.4c2,25.7,98.8,24.7,97.1,36
			c-2.7,18.3-65.5-23-68.3,2.3c-2.9,25.9,83.1,21.1,81.5,41.3c-0.9,11.6-23.7,9.1-26.3,25.2c-6.6,40.4,112.5,66.3,112.5,66.3
			L683.7,991.9z"/>
		<g>
			<path fill="#50BFA5" d="M715.8,996c0,0-54.9-84.2-81.4-100.1c-28.2-16.9-6.7,33.8-6.7,33.8s-57.6-68.5-73.6-54.6
				c-16,13.9-1.5,30-1.5,30s-51.7-15.3-61,3.7c-14.3,29.1,70.8,53.3,70.8,53.3s-35.3-0.8-29.8,19.3C538.9,1004,715.8,996,715.8,996z
				"/>
			<path fill="#96D9C9" d="M491.7,908.7c9.3-19,61-3.7,61-3.7s-14.5-16.1,1.5-30c16-13.9,62,27.7,62,27.7s-4.8-34.3,29.8-4.1
				c24.8,21.6,69.8,97.3,69.8,97.3L491.7,908.7z"/>
		</g>
		<g>
			<g>
				<path fill="#EB9949" d="M800.1,321c-32.5,14.8-44.5,37.7-32.4,80.5c8.5,24,64,84.1,127.8,80.2c-56.2-41.1-67.4-123.4-30-127.5
					C853.3,311.7,800.1,321,800.1,321z"/>
				<path fill="#F7CC7F" d="M961.6,478.5c-5.7-111.2-27.9-164.2-86.8-204.8c-22.4-15.6-52.7-11.2-90.3,23
					c-45,40.9-35.6,55.5-16.8,104.7c-6.3-30,1.2-60.8,28.9-63.2c27.7-2.4,64.5,7.3,109.1,65C935.3,441.5,940.5,489.4,961.6,478.5z"
					/>
				<path fill="#EB9642" d="M1115,298.7c5.9,53.4-43.1,88.1-88.8,131.5c-23.9,22.7-35.9,45.3-35.9,45.3c-10.1-8-5.1-15.4-2.6-26.6
					c48.4-72.8,55-125.1,37.8-137.6C1032.7,281.6,1100.8,240.4,1115,298.7z"/>
				<path fill="#F7CC7F" d="M959.8,475.5C939,352.9,942,293.5,961.9,253.8c21.5-42.8,43.8-53.1,84.5-32.8
					c64.8,32.2,69.3,53.6,68.6,77.7c-11.9-27.5-38.3-25.4-54.7-12.9c-16.5,12.5-51.4,53.9-62,114.2c-3.3,20.7-9.9,59.4-7.9,75.5
					C981.8,477.7,960.8,481.1,959.8,475.5z"/>
				<path fill="#EB9642" d="M1147.9,387.6c11.2,27.6,5.9,81.1-87.4,91.5c45.2,25.8,168.7,7.4,173.8-31.6
					c7.3-49.7-18.5-61.6-45.5-68.1C1161.7,372.9,1147.9,387.6,1147.9,387.6z"/>
				<path fill="#F7CC7F" d="M990.9,475.2c46.2-80.1,126-166.2,180.7-165.6c29.2,0,77.5,108.9,62.7,137.9c-2-40.7-25.7-53.5-60-52.3
					s-107,66.9-142.9,80C1000.8,482.7,990.9,475.2,990.9,475.2z"/>
			</g>
			<rect x="673.1" y="583" fill="#FF6C0D" width="561" height="413.4"/>
			<rect x="620.7" y="473.4" fill="#FF6C0D" width="665.7" height="109.6"/>
			<polygon fill="#C7C7C7" points="673.1,600.5 1234.1,587.8 1234.1,583 673.1,583 			"/>
			<path fill="#F7CC7F" d="M952.4,473.4c-19.4-7.6-64.4-2.3-97,0.5c-27.2,13.6-65.8,54.3-85.3,101.4c38.6-51.3,86.8-41.6,87.2,29.1
				C875.3,532.2,948.2,478.9,952.4,473.4z"/>
			<path fill="#F7CC7F" d="M984.3,473.4c63.6,40.4,97.7,100.9,113.6,159.2c19.7,76-12.6,121.9-18.8,143.8
				c102.9-136.3,109.1,0,109.1,0c35.1-83.7,25.5-169.2-25.8-228.2c-51.3-59-87.4-71.9-106.9-78.5
				C1035.9,463.1,997.2,465.6,984.3,473.4z"/>
			<g>
				<path fill="#13375B" d="M750,251.5c4.8-11.5,9.7-23.1,22.1-28.9c10.1-4.7,20.6-2.9,29.5,3.8c25.4,19.1,3.3,40.1,32.1,76.2
					c9,11.2,19.8,20.3,25.2,33.5c7.5,18.4-1.4,27.3-15.8,36.1c-68.7,42.2-104.7-44.5-103.4-64.3C740.7,293,746.9,258.9,750,251.5z"
					/>
				<path fill="#F7A491" d="M680.5,476.2c2.9-0.5,9.9-5.5,12.4-6c1.9-0.4,6.1-1,7.9-1.3c2.2-8.1,13.2-52.3,14.4-65.3
					c1.3-14,11.3-74.8,11.3-74.8l25.7,4.7c0,0-10.7,46.7-13.6,69.4c-2.5,19.5-23.9,63.2-26.6,67.9c0,0.1,0,0.2,0,0.3
					c-0.4,6.9-3.7,4.6-3.7,4.6l-5.4,1.4c0,0-19,1.8-20.3,2.3C681.3,479.9,677.6,476.6,680.5,476.2z"/>
				<path fill="#E5771C" d="M747.1,293.3c-18.2,6.2-28.5,55.6-28.5,55.6s28.5,8,35.8,3.8c0,0,8.3-36.8,11.3-35.5L747.1,293.3z"/>
				<path fill="#F7A491" d="M606.4,570.5c-5.6,14.7-8.5,28.8-8.7,30.5c-0.1,0.8,1,4.8,0.9,5.7c-11.2,15.2-27.2,18.6-41,19.5
					c7-6.8,17.3-13.3,17.8-15.5c0.8-3.5,5-18.8,7.1-40.1C591.1,574.6,596.9,571.5,606.4,570.5z"/>
				<path fill="#028889" d="M764.7,406.4l24.6,69.2c0,0-39.5,7.4-54.2,10.1c-14.8,2.7-97.2,6.3-99.3,7.8
					c-1.5,1.1-18.6,56.2-26.2,86.6c-8.6,1.9-23.4-0.4-31.3-3.1c4.2-43.5,19.6-112.4,24.5-119.9C610.7,444.9,764.7,406.4,764.7,406.4
					z"/>
				<path fill="#F7A491" d="M668.7,591.9c-2.7,15.5-2.9,29.9-2.8,31.6c0,0.8,1.9,4.5,2,5.4c-8.1,17.1-23.3,23.3-36.6,26.9
					c5.6-8,14.5-16.3,14.6-18.6c0.1-3.5,1.4-19.4-0.5-40.7C654.4,598.8,659.5,594.6,668.7,591.9z"/>
				<path fill="#009193" d="M795.5,399.3l5.8,14.2c0.7,1.6,1.4,3.2,2.2,4.7c12.8,24.5,2,56.1-24,66.2c-0.1,0.1-0.3,0.1-0.4,0.2
					c-14,5.4-94.3,24.4-96.1,26.2c-1.3,1.4-7.7,58.7-9.5,90c-8.1,3.5-23.1,4-31.3,2.8c-4-43.5-1.8-114,1.6-122.3
					C649.3,467.7,795.5,399.3,795.5,399.3z"/>
				<path fill="#13375B" d="M664.6,624c2.1-2.4,10,10.6,12,13.4c2.2,3.1,1.6,5.5,1.3,6c-0.7,1.3-42.1,25.6-52.2,27.4
					c-1,0.2-2.6-0.4-3-0.8c-3.9-3.5,14.2-29.3,22.4-32.7C650.3,635.1,655,634.6,664.6,624z"/>
				<path fill="#13375B" d="M596.4,601.5c2.5-1.9,7.8,12.3,9.2,15.4c1.6,3.5,0.5,5.7,0.2,6.1c-0.9,1.1-46.2,17.3-56.4,17.1
					c-1,0-2.5-0.9-2.8-1.4c-3.2-4.2,19.5-26.1,28.1-27.9C580.3,609.7,585,610.2,596.4,601.5z"/>
				<path fill="#F4861E" d="M764.3,293.2L764.3,293.2L764.3,293.2c-0.5,0-1.1-0.2-1.8-0.4c-3.4-0.6-10.8-1.5-16.5,0.9
					c-7,2.9-17.8,30.5-17.2,58.8c0.3,4.3,0.5,8.2,0.7,10.9c1.8,21.4,7.9,61.4,8.2,61.6c8.3,5.4,59.2-11.9,62.6-16.5
					c3.5-4.6,5-63.6,6.6-66.4l3.3-48.3C804.5,292.2,773.3,293.1,764.3,293.2z"/>
				<path fill="#F7A491" d="M784.7,275.4c0,0-3.2,16.7-2.6,23.3s-2.5,27.9-16.4,28c-14,0.1-2.7-27.1-1.3-33.5
					c1.3-6.5,1.6-26.5,1.6-26.5L784.7,275.4z"/>
				<path fill="#F47458" d="M765.6,276.8c0.2-5.5,0.3-10.1,0.3-10.1l18.7,8.7c0,0-0.7,3.4-1.3,7.8
					C775.2,284.9,769.2,281.8,765.6,276.8z"/>
				<path fill="#F7A491" d="M791.5,229.2c0,0,7.2,4,9.9,12.7s-0.4,31.1-19,36.5c-18.7,5.4-26.7-12.3-22.9-26.2
					C763.3,238.3,771.7,220.8,791.5,229.2z"/>
				<path fill="#F7A491" d="M757.1,246.8c0.4,3.7,2.4,6.6,4.6,6.4c2.2-0.2,3.6-3.4,3.3-7.1s-2.4-6.6-4.6-6.4
					C758.2,239.9,756.8,243.1,757.1,246.8z"/>
				<path fill="#13375B" d="M789.4,228.1c0,0,3.4,25,11.5,29.5c8.1,4.5,4.7,15.6,4.7,15.6s7.3-25.8,0.9-34
					C800.1,230.9,789.4,228.1,789.4,228.1z"/>
				<path fill="#F7A491" d="M796,261.2c-2.2,3.3-2.2,7.1,0,8.6c2.2,1.5,5.8,0,8-3.2c2.2-3.3,2.2-7.1,0-8.6
					C801.8,256.5,798.2,257.9,796,261.2z"/>
				<path fill="#F7A491" d="M892.1,471.2c-0.2-0.6-0.8-0.6-1.3-0.6c-5.2-0.2-10.4-0.4-15.6-1.2c-0.9-0.1-1.7-0.3-2.5-0.6
					c-1.4-0.6-2.9-0.6-4.3-0.2c-0.8,0.2-1.6,0.3-2.4,0.3c-2.6,0-10.1-2.6-13.9-3.2c-0.9-0.2-1.6-0.8-1.8-1.7
					c-3.8-14.9-11.9-48.4-12.9-59.4c-1.3-14.1-11.1-77.6-11.1-77.6l-26,7.3c0,0,10.7,46.9,13.7,69.6c2.3,17.5,19.8,54.8,25.3,65.5
					c2.7,8,8.7,8.2,10.1,8.4c0.8,0.1,1.5,0.5,2.1,1.1c1,1.1,2,2.1,3.3,2.9c0.9,0.6,1.6,1.3,2.2,2.2c1.1,1.6,2.1,3.3,3.1,5
					c0.6,1.1,1.3,1.5,2.3,1.2c1-0.3,1.5-1,1.5-2.3c0-1.9-0.6-3.5-1.6-5.1c-0.9-1.5-0.8-2.3,0.2-3.7c0.6-0.8,1.2-1.5,2-2.2
					c0.8-0.6,1.6-1.1,2.7-1c1.9,0.5,3.8,0.8,5.7,1.1l1.6,0.3c0.1,0,0.9,0.2,0.9,0.2c0.1,0,2.9,0.3,3.8,0.3c0.8,0,2,0.1,3,0.1
					c1,0,3-0.4,3-0.5c0.9,0,1.7-0.4,2.4-1c0.3-0.3,0.6-0.5,0.4-1c-0.1-0.4-0.4-0.6-0.8-0.6c-0.6-0.1-3.9-0.5-3.8-0.6
					c1,0,4-0.1,4.9-0.1c1.3,0,2.4-0.5,3.3-1.5C892,472.2,892.4,471.8,892.1,471.2z"/>
				<path fill="#F4861E" d="M810.6,293.8c12.8-2.3,23.4,55.1,23.4,55.1s-28.5,8-35.8,3.8c0,0-8.3-36.8-11.3-35.5L810.6,293.8z"/>
			</g>
		</g>
		<path fill="#939598" d="M1550.3,991.7H394.9c-1.4,0-2.6,1.6-2.6,3.6l0,0c0,2,1.2,3.6,2.6,3.6h1155.4c1.4,0,2.6-1.6,2.6-3.6l0,0
			C1552.9,993.3,1551.7,991.7,1550.3,991.7z"/>
	</g>
</g>
<polygon fill="#F7CC7F" points="1025.4,991.7 894.9,991.7 894.9,595.5 1025.4,592.5 "/>
<rect x="894.9" y="473.4" fill="#F7CC7F" width="130.5" height="109.6"/>
</svg>
